<svg enable-background="new 0 0 100 100" xml:space="preserve" version="1.1" viewBox="0 0 100 125" x="0px" xmlns="http://www.w3.org/2000/svg" xmlns:xlink="http://www.w3.org/1999/xlink" y="0px"><g transform="rotate(-90,47.6,64.9)"><path d="M 74.4 35.7 l -0.2 -0.1 l -34.7 0 c -1.4 0.1 -2.6 0.9 -3.4 2.2 c -0.4 0.6 -0.7 1.3 -0.9 2 H 6.9 c -4.4 0 -7.9 3.5 -7.9 7.9 s 3.5 7.9 7.9 7.9 h 25.3 c -0.7 1 -1.1 2.2 -1.1 3.5 v 4 c 0 2.6 1.6 4.7 3.9 5.6 c -0.8 1 -1.4 2.3 -1.4 3.7 v 4.2 c 0 2.6 1.6 4.7 3.9 5.5 c -0.7 0.9 -1.2 2.1 -1.2 3.4 v 3.1 c 0 3.1 2.5 5.6 5.6 5.6 h 8.3 c 1.2 0.1 2.8 0.1 4.8 0.1 c 8.7 0 23.8 -1.2 32.7 -9 c 4.4 -3.8 6.8 -8.7 7.1 -14.7 C 96.3 42.9 74.6 35.8 74.4 35.7 z M 1.5 47.8 c 0 -3 2.4 -5.4 5.4 -5.4 h 27.8 c 0 1.1 0.1 2.3 0.5 3.2 l 0.8 2 c 1.3 3.1 4.2 5.2 7.7 5.6 l 1.5 0.1 h -6 h -2.2 H 6.9 C 4 53.2 1.5 50.8 1.5 47.8 z M 33.6 63.2 v -4 c 0 -1.9 1.6 -3.5 3.5 -3.5 h 2.2 h 21.5 c 1.5 0 2.7 1.2 2.7 2.7 v 5.1 c 0 1.7 -1.4 3.1 -3.1 3.1 h -1.7 H 39.5 h -2.4 C 35.2 66.6 33.6 65.1 33.6 63.2 z M 36.1 76.7 v -4.2 c 0 -1.8 1.5 -3.4 3.4 -3.4 h 19.2 c 1.3 0 2.3 1 2.3 2.3 v 5.7 c 0 1.6 -1.3 3 -3 3 h -2.1 H 42 h -2.5 C 37.6 80.1 36.1 78.6 36.1 76.7 z M 38.9 88.8 v -3.1 c 0 -1.7 1.4 -3.1 3.1 -3.1 h 13.9 c 1.3 0 2.3 1 2.3 2.3 v 4.6 c 0 1.4 -1.1 2.5 -2.5 2.5 h -5.3 c -1.1 -0.1 -1.8 -0.1 -1.8 -0.1 c -0.2 0 -0.4 0 -0.6 0.1 H 42 C 40.3 91.9 38.9 90.5 38.9 88.8 z M 92.4 70.8 c -0.3 5.2 -2.4 9.6 -6.2 12.9 c -6.8 5.9 -17.8 7.7 -26.1 8.2 c 0.4 -0.7 0.7 -1.5 0.7 -2.4 v -4.6 c 0 -1 -0.3 -1.9 -0.8 -2.6 c 2.1 -0.8 3.6 -2.8 3.6 -5.1 v -5.7 c 0 -1 -0.3 -2 -0.9 -2.7 c 2 -0.9 3.4 -2.8 3.4 -5.1 v -5.1 c 0 -1.7 -0.9 -3.3 -2.2 -4.2 l 4.7 0.3 c 0.7 0 1.3 -0.5 1.3 -1.2 c 0 -0.7 -0.5 -1.3 -1.2 -1.3 L 44 50.6 c -2.5 -0.2 -4.7 -1.8 -5.6 -4 l -0.8 -2 c -0.3 -0.7 -0.4 -1.7 -0.3 -2.7 c 0.2 -0.2 0.3 -0.5 0.3 -0.8 c 0 -0.2 0 -0.3 -0.1 -0.4 c 0.2 -0.6 0.4 -1.1 0.6 -1.5 c 0.4 -0.7 0.9 -1 1.4 -1.1 h 34.3 C 75.9 38.9 93.7 45.8 92.4 70.8 z" fill="#000000"/></g><rect x="201" y="155" width="20" height="10" fill="rgb(255, 255, 255)"/></svg>