<svg data-name="Layer 1" viewBox="0 0 100 125" x="0px" xmlns="http://www.w3.org/2000/svg" y="0px" xmlns:xlink="http://www.w3.org/1999/xlink">
    <defs>
        <style>
            .cls-1{fill:#000000;}
        </style>
    </defs>
    <path class="cls-1" d="M 85 53.8 l -6.3 -13.6 C 77.9 38.6 76.6 37.3 74.9 36.7 l -18.6 -7 C 52.4 28.3 48.2 29 45 31.6 h 0 l -0.2 0 l -0.2 0 c -5.3 -0.5 -8.3 1.6 -12.7 5 C 31.5 37 31.1 37.3 30.7 37.7 L 20 50.2 C 16.4 54.3 14 59.2 12.8 64.4 C 12.5 65.7 12.4 67.1 12.5 68.4 c 0.7 7.7 3.9 21.4 18 26.1 C 34.6 96.2 39 97 43.4 97 C 48.5 96.9 53.5 96.1 58.4 94.5 C 59.2 94.3 60 94.1 60.5 94 c 0 0 4.5 -1.1 6 -2.5 c 6.8 -6.2 10.6 -10.2 11.1 -12.1 l 3.7 -13 C 81.8 65 81.6 63.5 80.8 62.2 l 0.1 0 C 82.7 61.8 84.2 60.6 85 59 C 85.8 57.3 85.8 55.4 85 53.8 Z M 55.2 32.7 l 8.6 3.2 L 49.6 32.7 C 51.4 32 53.4 32 55.2 32.7 Z M 78.3 65.6 l -3.7 13 c -0.3 1 -3.6 4.7 -10.2 10.6 C 63 90 61.4 90.6 59.8 90.9 c -0.6 0.2 -1.4 0.4 -2.3 0.6 c -5.4 1.5 -15.4 4.3 -26 0.1 c -11.9 -4 -15.2 -14.9 -16 -23.4 C 15.5 67.2 15.6 66.1 15.9 65.1 C 16.9 60.4 19.1 55.9 22.3 52.3 L 33.1 39.8 C 33.4 39.6 33.6 39.3 33.9 39.1 c 4 -3.2 6.2 -4.5 9.2 -4.5 c 0.4 0 0.8 0 1.2 0.1 l 20.1 4.5 l 0.2 0 c 3.2 0.3 6 3.9 8.2 7.3 l 4.5 7.5 c 0.7 1.2 -0.3 2.7 -0.7 3.2 C 75.8 57.9 74.9 58.5 73.9 58.7 c -2.1 0.5 -5.2 -1 -8.5 -4 l -6.1 -5.3 C 57.7 47.8 55.5 47 53.2 47.1 l -3.4 0.1 C 46.2 47.3 43.1 49.7 41.9 53.1 l -2.5 7.2 C 39.2 60.8 39.1 61.4 39 62 C 38.7 65 39.2 67.9 40.5 70.6 c 2.9 5.8 18.3 4.5 19.6 4.1 l 0.4 -0.2 C 62.7 73.8 64.5 72.2 65.4 70.1 L 66.9 67 C 68.4 64 71.6 62.2 75 62.6 l 1.5 0.2 C 77.1 62.9 77.7 63.2 78 63.8 C 78.4 64.3 78.5 65 78.3 65.6 Z M 46.1 57 l 8.3 -6.7 C 55.5 50.5 56.5 51 57.3 51.8 l 6.1 5.3 C 64.9 58.5 66.7 59.8 68.7 60.8 C 66.7 61.9 65.1 63.6 64.1 65.7 L 62.6 68.8 C 62 70.1 60.9 71.1 59.5 71.6 l -0.4 0.1 c -1.9 0.5 -14.2 0.7 -15.7 -2.5 C 42.5 67.6 42.1 65.7 42.1 63.8 C 43.1 61.3 44.4 59 46.1 57 Z M 45 53.9 C 45.7 52.1 47.3 50.8 49.3 50.4 Z m 37.2 3.7 C 81.8 58.3 81.1 58.9 80.2 59.1 C 79.8 59.2 79.4 59.2 79 59.3 c 1.5 -1.7 2.5 -4.5 1 -6.8 L 75.4 44.9 C 73.8 42.3 71.8 39.9 69.4 38 l 4.5 1.7 C 74.7 40 75.5 40.6 75.9 41.5 l 6.3 13.6 C 82.5 55.9 82.5 56.8 82.1 57.6 Z"/>
    <rect x="172" y="163" width="2" height="32" fill="rgb(255, 255, 255)"/>
</svg>