<svg enable-background="new 0 0 100 100" xml:space="preserve" version="1.1" viewBox="0 0 100 125" x="0px" xmlns="http://www.w3.org/2000/svg" xmlns:xlink="http://www.w3.org/1999/xlink" y="0px"><path d="M 36.8 91.9 l -8.7 -15 l -8.7 15 h 5.2 c -0.5 1.9 -1.5 4.2 -3.2 5.5 c -1.5 1.1 -3.4 1.4 -5.8 1 c -6.3 -1.3 -6 -21.9 -3.9 -35.4 c 0.3 -1.6 -0.9 -3.2 -2.5 -3.4 c -1.6 -0.3 -3.2 0.9 -3.4 2.5 c -1 6.6 -5.5 39.4 8.6 42.2 c 1.2 0.2 2.2 0.3 3.2 0.3 c 3.6 0 6.1 -1.4 7.7 -2.7 c 3.5 -2.9 4.9 -7.2 5.4 -10 H 36.8 z" fill="#000000"/><path d="M 96.7 59.3 c -0.4 -3.1 -4 -16.3 -6.7 -20.2 l -0.3 -0.4 l -11.9 -3 l -6.3 -11 c -1.6 -2.8 -5.2 -3.8 -8 -2.2 l -4.3 2.4 c -1.4 0.8 -2.3 2.1 -2.7 3.5 c -0.5 -0.3 -1 -0.5 -1.5 -0.7 c -1.5 -0.4 -3.1 -0.2 -4.5 0.6 l -4 2.3 c -2.3 1.3 -3.4 4 -2.9 6.5 c -1.3 -0.2 -2.6 0 -3.8 0.7 l -4.2 2.4 c -1.4 0.8 -2.3 2 -2.7 3.5 c -0.1 0.5 -0.2 0.9 -0.2 1.4 l -4.5 -7.9 c -1.9 -3.4 -6.3 -4.6 -9.7 -2.7 c -1.6 0.9 -2.8 2.5 -3.3 4.3 c -0.5 1.8 -0.3 3.7 0.7 5.4 L 29.5 68 c 0.4 0.8 10.4 20.3 26.7 25.2 c 2.4 0.7 4.9 1.1 7.3 1.1 c 4.7 0 9.4 -1.3 14 -4 C 97.3 79 97.9 68.8 96.7 59.3 z M 60.6 27.1 l 4.3 -2.4 c 0.5 -0.3 1.1 -0.4 1.6 -0.4 c 0.3 0 0.6 0 0.9 0.1 c 0.9 0.2 1.6 0.8 2 1.6 l 5.1 8.9 l -2.7 -0.7 c -1.9 -0.4 -4.4 -0.3 -6.7 0.5 l -3.4 1.1 l -2.3 -4.1 C 58.4 30.1 59 28 60.6 27.1 z M 47.8 32.8 l 4 -2.3 c 0.5 -0.3 1.1 -0.5 1.7 -0.5 c 0.3 0 0.6 0 0.9 0.1 c 0.9 0.2 1.6 0.8 2.1 1.6 l 2.7 4.7 l -8.8 2.8 c -0.8 0.3 -1.6 0.7 -2.2 1.3 L 47.9 40 c 0 0 0 0 0 0 l -1.4 -2.5 C 45.5 35.9 46.1 33.7 47.8 32.8 z M 35.3 44.4 c 0.2 -0.9 0.8 -1.6 1.6 -2 l 4.2 -2.4 c 0.5 -0.3 1.1 -0.4 1.7 -0.4 c 1.2 0 2.3 0.6 2.9 1.7 l 0.9 1.6 c -0.2 0.4 -0.3 0.7 -0.4 1.1 c -0.5 2.2 0.2 4.4 1.9 6 l 2.1 1.9 c 0.8 0.7 1.6 1.2 2.5 1.7 L 60 66.3 c 1.5 2.6 0.6 5.9 -2 7.4 l -0.7 0.4 c -1.3 0.7 -2.7 0.9 -4.1 0.5 c -1.4 -0.4 -2.6 -1.3 -3.3 -2.5 L 35.6 46.9 C 35.2 46.2 35.1 45.3 35.3 44.4 z M 68.7 53.2 l 5.7 10 c 1.5 2.6 0.6 5.9 -2 7.4 l -0.7 0.4 c -2.6 1.5 -5.9 0.6 -7.4 -2 l -2.2 -3.8 c 0 0 0 0 0 0 l -6.1 -10.7 c 0.7 0.1 1.3 0 2 0 L 68.7 53.2 z M 76.4 88.1 c -6.5 3.7 -13 4.6 -19.4 2.7 c -15.3 -4.6 -25.1 -23.7 -25.3 -24 L 18 43 c -0.6 -1.1 -0.8 -2.3 -0.4 -3.5 c 0.3 -1.2 1.1 -2.2 2.2 -2.8 c 2.2 -1.3 5 -0.5 6.3 1.7 l 8.7 15.2 c 0.3 0.6 1.1 0.8 1.7 0.5 c 0.4 -0.2 0.6 -0.6 0.6 -1.1 l 1.8 4.5 l 8.9 15.7 c 1 1.8 2.7 3.2 4.8 3.7 c 0.7 0.2 1.4 0.3 2.1 0.3 c 1.4 0 2.7 -0.4 3.9 -1 l 0.7 -0.4 c 1.9 -1.1 3.1 -2.8 3.7 -4.7 c 1.5 1.9 3.8 3 6.2 3 c 1.3 0 2.7 -0.3 3.9 -1 l 0.7 -0.4 c 3.4 -1.9 4.8 -6.1 3.5 -9.6 c 0.7 0.2 1.3 0.3 2 0.3 c 0.5 0 1 -0.1 1.5 -0.2 c -0.4 -0.8 -0.9 -1.6 -1.3 -2.4 c -1.9 0.1 -3.8 -0.9 -4.9 -2.7 l -3 -5.2 l 1.4 -0.2 c 0.7 -0.1 1.2 -0.7 1.1 -1.4 c -0.1 -0.7 -0.7 -1.2 -1.4 -1.1 l -14.8 1.6 c -2.2 0.3 -4.3 -0.4 -5.9 -1.9 l -2.1 -1.9 c -0.9 -0.8 -1.3 -1.9 -1.2 -3 c 0 0 0 -0.1 0 -0.1 c 0 -0.2 0 -0.3 0.1 -0.5 c 0.3 -1.3 1.2 -2.4 2.5 -2.8 L 65.8 37 c 1.9 -0.6 3.9 -0.8 5.3 -0.4 l 17 4.3 c 2.4 3.9 5.7 16 6 18.7 C 95.1 66.8 96.3 76.7 76.4 88.1 z" fill="#000000"/><rect x="272" y="91" width="0" height="0" fill="rgb(255, 255, 255)"/></svg>